<?xml version="1.0" encoding="UTF-8" standalone="no"?>
<!-- Created with Inkscape (http://www.inkscape.org/) -->
<svg
   xmlns:dc="http://purl.org/dc/elements/1.1/"
   xmlns:cc="http://creativecommons.org/ns#"
   xmlns:rdf="http://www.w3.org/1999/02/22-rdf-syntax-ns#"
   xmlns:svg="http://www.w3.org/2000/svg"
   xmlns="http://www.w3.org/2000/svg"
   xmlns:sodipodi="http://sodipodi.sourceforge.net/DTD/sodipodi-0.dtd"
   xmlns:inkscape="http://www.inkscape.org/namespaces/inkscape"
   width="431"
   height="210"
   id="svg2493"
   sodipodi:version="0.32"
   inkscape:version="0.46"
   sodipodi:docname="anti-rhino.svg"
   inkscape:output_extension="org.inkscape.output.svg.inkscape"
   version="1.0">
  <defs
     id="defs2495">
    <inkscape:perspective
       sodipodi:type="inkscape:persp3d"
       inkscape:vp_x="0 : 105 : 1"
       inkscape:vp_y="0 : 1000 : 0"
       inkscape:vp_z="431 : 105 : 1"
       inkscape:persp3d-origin="215.5 : 70 : 1"
       id="perspective8" />
  </defs>
  <sodipodi:namedview
     id="base"
     pagecolor="#ffffff"
     bordercolor="#666666"
     borderopacity="1.0"
     gridtolerance="10000"
     guidetolerance="10"
     objecttolerance="10"
     inkscape:pageopacity="0.0"
     inkscape:pageshadow="2"
     inkscape:zoom="1.3665723"
     inkscape:cx="193.99613"
     inkscape:cy="111.45769"
     inkscape:document-units="px"
     inkscape:current-layer="layer1"
     showgrid="false"
     inkscape:window-width="1440"
     inkscape:window-height="852"
     inkscape:window-x="114"
     inkscape:window-y="1072"
     inkscape:showpageshadow="false" />
  <metadata
     id="metadata2498">
    <rdf:RDF>
      <cc:Work
         rdf:about="">
        <dc:format>image/svg+xml</dc:format>
        <dc:type
           rdf:resource="http://purl.org/dc/dcmitype/StillImage" />
      </cc:Work>
    </rdf:RDF>
  </metadata>
  <g
     inkscape:label="Layer 1"
     inkscape:groupmode="layer"
     id="layer1"
     transform="translate(179.28066,87.304077)">
    <path
       style="opacity:0.81720007;fill:#cccccc;fill-opacity:1;fill-rule:nonzero;stroke:#000000;stroke-width:1;stroke-linecap:square;stroke-linejoin:miter;stroke-miterlimit:4;stroke-dasharray:1, 1;stroke-dashoffset:0;stroke-opacity:1"
       d="M -178.78066,-86.804077 L -178.78066,354.44592 L 523.68809,354.44592 L 523.68809,-86.804077 L -178.78066,-86.804077 z M 248.78184,36.883426 C 250.78472,36.849547 253.37559,37.195926 253.37559,37.195926 C 253.37559,37.195926 261.79259,38.356426 269.25059,39.508426 C 273.84659,40.216426 278.93809,41.133426 278.93809,41.133426 C 278.93809,41.133426 301.71134,42.384426 314.71934,43.758426 C 319.74133,44.292426 323.81309,45.852176 323.81309,45.852176 C 323.81308,45.852176 329.76509,48.306176 337.31309,53.352176 C 343.35508,57.402177 351.28184,64.289676 351.28184,64.289676 C 351.28185,64.289675 357.06234,69.435926 361.84434,75.195926 C 365.78635,79.947925 368.87559,85.477176 368.87559,85.477176 C 368.87558,85.477174 369.47459,86.658926 370.50059,89.820926 C 370.99858,91.290924 371.43284,92.925676 371.90684,94.539676 C 372.39284,96.153677 372.90684,97.727176 372.90684,97.727176 C 372.90683,97.727177 375.34159,102.50243 375.12559,108.50843 C 374.90358,114.76042 372.03184,122.25843 372.03184,122.25843 C 372.03185,122.25843 366.79859,132.25817 362.25059,141.85218 C 358.05059,150.72617 354.50059,159.22718 354.50059,159.22718 C 354.50058,159.22718 351.32734,165.00543 348.96934,168.38343 C 347.72135,170.15943 346.53184,170.63343 346.53184,170.63343 C 346.53183,170.63344 342.61334,178.46693 340.21934,185.57093 C 338.22135,191.46292 337.68809,196.85218 337.68809,196.85218 C 337.6881,196.85218 338.21934,199.82143 337.46934,202.38343 C 336.86935,204.40543 334.96934,206.16468 334.96934,206.16468 C 334.96934,206.16468 334.04634,209.23118 332.59434,210.97718 C 331.07635,212.81318 329.03184,213.32093 329.03184,213.32093 C 329.03185,213.32093 327.92209,215.23393 326.93809,217.19593 C 326.03808,219.00193 325.25059,220.88343 325.25059,220.88343 C 325.25058,220.88344 327.04384,225.76867 327.78184,229.16467 C 328.51985,232.55467 328.21934,234.47717 328.21934,234.47717 C 328.21933,234.47718 328.27234,236.88617 326.09434,237.85217 C 323.92835,238.81218 319.53184,238.32092 319.53184,238.32092 C 319.53184,238.32092 318.45033,238.34067 317.09434,238.66467 C 315.48634,239.03667 313.40884,239.75767 310.90684,240.03967 C 305.44684,240.63967 299.27009,240.57092 299.43809,240.57092 C 299.61208,240.57092 293.74184,240.57842 292.03184,237.00842 C 290.84384,234.54842 293.31309,230.13342 293.31309,230.13342 C 293.3131,230.13342 294.17509,228.47867 295.81309,226.41467 C 297.18109,224.71067 299.20359,222.79943 300.62559,220.63343 C 301.93359,218.59943 302.77859,216.14018 303.75059,214.35218 C 305.44858,211.22619 306.81309,209.28968 306.81309,209.28968 C 306.81309,209.28967 307.84334,206.18343 307.21934,202.13343 C 306.75134,199.09744 304.56309,194.85218 304.56309,194.85218 C 304.56308,194.85218 302.66684,189.98368 301.40684,185.03968 C 300.16484,180.17369 299.59434,175.19593 299.59434,175.19593 C 299.59434,175.19593 299.06234,170.86443 297.09434,168.00843 C 295.71433,166.00444 292.68809,165.16468 292.68809,165.16468 C 292.68809,165.16469 289.20134,162.96943 286.21934,163.38343 C 284.28734,163.66543 282.40684,166.60218 282.40684,166.60218 C 282.40683,166.60218 271.91409,176.14968 259.93809,181.03968 C 247.1821,186.24169 232.84434,186.78968 232.84434,186.78968 C 232.84434,186.78968 222.44885,187.97018 211.15684,188.10218 C 197.78285,188.24018 183.15684,187.35218 183.15684,187.35218 C 183.15683,187.35219 182.19234,187.40068 181.84434,190.66468 C 181.44235,194.29468 181.65684,201.19593 181.65684,201.19593 C 181.65684,201.19593 181.42434,202.80493 181.84434,204.07093 C 182.29434,205.42093 183.40009,206.44843 183.68809,208.00843 C 184.0601,210.02443 183.56309,211.63343 183.56309,211.63343 C 183.56309,211.63343 183.72259,213.57693 184.25059,215.82093 C 184.9166,218.64693 186.00059,221.91468 186.00059,221.91468 C 186.00059,221.91468 192.53084,232.87442 194.15684,239.25842 C 195.10484,243.00242 191.53184,243.63342 191.53184,243.63342 C 191.53185,243.63343 188.29009,244.54392 184.43809,244.94592 C 180.94008,245.31192 176.81309,245.16467 176.81309,245.16467 C 176.81309,245.16467 164.26334,247.44217 158.71934,245.85217 C 155.22134,244.85617 157.75059,239.69592 157.75059,239.69592 C 157.75059,239.69593 158.08459,236.72817 159.50059,234.35217 C 161.00059,231.79618 163.65684,229.78967 163.65684,229.78967 C 163.65683,229.78967 163.22684,223.79994 162.65684,220.44593 C 162.43483,219.08993 161.68809,218.32093 161.68809,218.32093 C 161.68809,218.32093 159.44934,215.37918 157.46934,212.72718 C 155.98734,210.77119 154.62559,208.91468 154.62559,208.91468 C 154.62559,208.91468 153.93459,208.09318 153.25059,210.72718 C 152.5666,213.35518 151.90684,219.41468 151.90684,219.41468 C 151.90683,219.41468 151.94584,220.72193 151.53184,222.69593 C 151.35785,223.56593 150.72734,223.54942 150.46934,224.38342 C 150.19333,225.32542 150.28184,227.07092 150.28184,227.07092 C 150.28185,227.07092 154.27434,233.82892 154.84434,237.32092 C 155.45034,241.05292 152.62559,241.53967 152.62559,241.53967 C 152.62558,241.53967 144.02409,243.10167 136.93809,243.53967 C 131.73009,243.84567 127.43809,243.07092 127.43809,243.07092 C 127.43808,243.07092 126.59809,243.16867 125.93809,242.66467 C 125.19409,242.09467 124.62559,240.91467 124.62559,240.91467 C 124.62559,240.91467 119.34959,241.45067 117.37559,239.91467 C 116.00159,238.84067 117.71934,235.50842 117.71934,235.50842 C 117.71934,235.50842 118.26534,232.70642 119.96934,231.00842 C 121.42735,229.55042 124.09434,229.16467 124.09434,229.16467 C 124.09435,229.16466 127.36409,228.07817 129.18809,225.10217 C 130.94609,222.25217 131.21934,217.50843 131.21934,217.50843 C 131.21935,217.50842 130.75784,212.15793 127.78184,205.69593 C 126.07184,201.99994 121.09434,195.57093 121.09434,195.57093 C 121.09434,195.57092 115.76384,191.62168 112.03184,187.28968 C 109.06184,183.85168 107.50059,179.82093 107.50059,179.82093 C 107.50059,179.82092 103.28109,181.46743 98.31309,180.63343 C 93.4351,179.81743 87.81309,176.50843 87.81309,176.50843 C 87.81309,176.50843 85.18584,179.55743 82.28184,180.13343 C 79.94784,180.58942 77.21934,178.60218 77.21934,178.60218 C 77.21935,178.60218 74.68484,177.21868 72.65684,175.66468 C 70.36484,173.90068 68.53184,171.91468 68.53184,171.91468 C 68.53184,171.91468 68.45384,177.52668 65.53184,179.91468 C 62.83184,182.10468 57.25059,181.10218 57.25059,181.10218 C 57.25059,181.10218 53.24184,186.62593 47.78184,190.19593 C 41.301837,194.40793 33.21934,196.78968 33.21934,196.78968 C 33.219339,196.78967 31.81884,197.18293 30.90684,198.07093 C 29.460837,199.49293 27.87209,201.75368 24.93809,202.53968 C 20.516077,203.74567 14.81309,201.75843 14.81309,201.75843 C 14.813091,201.75843 11.00484,203.40343 6.90684,203.88343 C 3.270841,204.32144 -0.71816,203.60218 -0.71816,203.60218 C -0.71816,203.60218 -2.37391,203.59118 -4.31191,201.97718 C -5.83591,200.68718 -7.54566,198.04468 -8.65566,195.91468 C -10.677658,192.05067 -9.84316,186.16468 -9.84316,186.16468 C -9.843159,186.16468 -10.42191,183.38318 -10.81191,180.97718 C -11.141909,178.90718 -11.31191,177.13343 -11.31191,177.13343 C -11.311909,177.13342 -22.30941,168.43518 -30.49941,160.22718 C -37.405411,153.30318 -41.68691,146.66468 -41.68691,146.66468 C -41.68691,146.66468 -46.73466,140.78618 -50.28066,134.85218 C -53.41866,129.56618 -55.12441,124.16468 -55.12441,124.16468 C -55.12441,124.16468 -55.16116,122.65243 -54.09316,122.50843 C -52.35916,122.28642 -50.78066,123.91468 -50.78066,123.91468 C -50.78066,123.91468 -43.37116,130.12992 -34.59316,134.69593 C -25.557161,139.40593 -15.15566,142.50843 -15.15566,142.50843 C -15.155661,142.50843 -11.98566,142.16468 -8.65566,142.16468 C -6.69366,142.16468 -3.81191,142.50843 -3.81191,142.50843 C -3.811911,142.50843 -5.70116,139.68318 -6.34316,136.97718 C -6.799161,135.02118 -6.06191,132.91468 -6.06191,132.91468 C -6.061911,132.91468 -7.68866,129.64543 -8.03066,126.63343 C -8.27666,124.47943 -7.28066,122.32093 -7.28066,122.32093 C -7.28066,122.32093 -5.79041,120.88143 -2.87441,121.13343 C 1.445591,121.49942 3.15684,123.69593 3.15684,123.69593 C 3.156841,123.69592 6.18984,127.18293 8.78184,129.57093 C 10.419839,131.06492 12.09434,131.88343 12.09434,131.88343 C 12.09434,131.88343 15.73084,130.72543 18.40684,125.13343 C 21.454843,118.76742 23.59434,107.85218 23.59434,107.85218 C 23.594341,107.85217 21.23634,103.73293 21.34434,99.820926 C 21.42834,97.228926 24.00059,94.258426 24.00059,94.258426 C 24.00059,94.258425 18.55109,95.177176 14.81309,93.977176 C 11.447087,92.897177 9.75059,89.695926 9.75059,89.695926 C 9.750589,89.695928 6.85209,88.378926 4.93809,85.570926 C 3.70209,83.770924 3.15684,80.039676 3.15684,80.039676 C 3.15684,80.039677 3.39909,78.988426 3.06309,77.758426 C 2.805089,76.834426 1.99084,75.825676 1.90684,75.039676 C 1.774839,73.779675 2.43809,73.602176 2.43809,73.602176 C 2.438092,73.602176 3.97784,72.980176 5.53184,73.352176 C 7.349839,73.772174 9.21934,75.195926 9.21934,75.195926 C 9.219341,75.195924 10.21834,75.579176 13.34434,76.227176 C 14.604342,76.491177 16.75659,76.842176 18.25059,77.352176 C 19.834591,77.880177 20.78334,78.572676 22.46934,78.914676 C 24.089343,79.238674 25.76259,79.329676 27.25059,79.539676 C 31.348593,80.103677 34.43809,80.445926 34.43809,80.445926 L 36.06309,80.039676 C 36.063087,80.039676 32.46159,77.515176 31.37559,73.477176 C 30.283589,69.343175 32.43809,66.383426 32.43809,66.383426 C 32.438091,66.383426 32.14559,65.230426 34.87559,63.508426 C 36.435588,62.506426 41.68809,60.508426 41.68809,60.508426 C 41.688093,60.508425 42.67034,60.340426 43.59434,61.258426 C 44.236339,61.882426 44.24659,62.802926 44.75059,63.570926 C 45.27259,64.368927 46.25059,65.008426 46.25059,65.008426 C 46.25059,65.008426 47.25934,65.317176 48.21934,66.727176 C 49.23934,68.245176 50.21934,70.883426 50.21934,70.883426 L 51.71934,70.008426 C 51.71934,70.008425 51.80234,61.234676 55.59434,54.664676 C 56.47034,53.134676 58.31859,50.835676 60.25059,49.539676 C 62.36259,48.141676 64.53184,47.789676 64.53184,47.789676 C 64.53184,47.789676 67.72184,46.709926 70.78184,44.945926 C 72.22184,44.123926 72.57559,43.531176 73.62559,42.727176 C 74.7176,41.899176 78.50059,40.477176 78.50059,40.477176 C 78.50059,40.477176 84.18534,39.139176 89.21934,38.977176 C 92.47134,38.869176 95.87559,39.914676 95.87559,39.914676 C 95.87558,39.914676 97.35359,40.614176 100.12559,40.602176 C 102.57959,40.590176 106.15509,39.866676 108.81309,39.914676 C 112.28709,39.962676 115.25059,40.227176 115.25059,40.227176 C 115.25059,40.227176 129.51659,39.168426 139.50059,39.258426 C 145.37459,39.312426 149.25059,40.570926 149.25059,40.570926 C 149.25059,40.570926 152.75684,40.946176 155.90684,41.852176 C 158.44484,42.596176 160.30959,43.819426 163.37559,44.383426 C 167.83959,45.205426 172.87559,44.914676 172.87559,44.914676 C 172.8756,44.914676 176.42509,45.095676 181.81309,44.789676 C 187.21309,44.483676 194.47409,43.662426 201.18809,43.008426 C 212.10809,41.934426 222.00059,40.070926 222.00059,40.070926 C 222.00059,40.070926 239.91734,37.670676 247.96934,36.914676 C 248.22284,36.892926 248.49571,36.888266 248.78184,36.883426 z"
       id="rect3230" />
  </g>
</svg>
