<?xml version="1.0" encoding="UTF-8" standalone="no"?>
<!-- Created with Inkscape (http://www.inkscape.org/) -->
<svg
   xmlns:dc="http://purl.org/dc/elements/1.1/"
   xmlns:cc="http://creativecommons.org/ns#"
   xmlns:rdf="http://www.w3.org/1999/02/22-rdf-syntax-ns#"
   xmlns:svg="http://www.w3.org/2000/svg"
   xmlns="http://www.w3.org/2000/svg"
   xmlns:sodipodi="http://sodipodi.sourceforge.net/DTD/sodipodi-0.dtd"
   xmlns:inkscape="http://www.inkscape.org/namespaces/inkscape"
   width="431"
   height="210"
   id="svg2493"
   sodipodi:version="0.32"
   inkscape:version="0.46"
   sodipodi:docname="rhino.svg"
   inkscape:output_extension="org.inkscape.output.svg.inkscape"
   version="1.0">
  <defs
     id="defs2495" />
  <sodipodi:namedview
     id="base"
     pagecolor="#ffffff"
     bordercolor="#666666"
     borderopacity="1.0"
     gridtolerance="10000"
     guidetolerance="10"
     objecttolerance="10"
     inkscape:pageopacity="0.0"
     inkscape:pageshadow="2"
     inkscape:zoom="1.3665723"
     inkscape:cx="295.34459"
     inkscape:cy="104.76489"
     inkscape:document-units="px"
     inkscape:current-layer="layer1"
     showgrid="false"
     inkscape:window-width="1680"
     inkscape:window-height="1028"
     inkscape:window-x="0"
     inkscape:window-y="0"
     inkscape:showpageshadow="false" />
  <metadata
     id="metadata2498">
    <rdf:RDF>
      <cc:Work
         rdf:about="">
        <dc:format>image/svg+xml</dc:format>
        <dc:type
           rdf:resource="http://purl.org/dc/dcmitype/StillImage" />
      </cc:Work>
    </rdf:RDF>
  </metadata>
  <g
     inkscape:label="Layer 1"
     inkscape:groupmode="layer"
     id="layer1"
     transform="translate(179.28066,87.304077)">
    <path
       style="fill:#cccccc;fill-opacity:1;fill-rule:nonzero"
       id="path4054"
       d="M -134.01062,61.963226 C -134.01062,61.963226 -134.58662,59.209226 -134.97662,56.803226 C -135.30662,54.733226 -135.45662,52.951226 -135.45662,52.951226 C -135.45662,52.951226 -146.46662,44.257226 -154.65662,36.049226 C -161.56262,29.125226 -165.84662,22.489236 -165.84662,22.489236 C -165.84662,22.489236 -170.88662,16.603236 -174.43262,10.669231 C -177.57062,5.3832298 -179.28062,-0.022770241 -179.28062,-0.022770241 C -179.28062,-0.022770241 -179.30462,-1.5287702 -178.23662,-1.6727702 C -176.50262,-1.8947702 -174.94262,-0.26277024 -174.94262,-0.26277024 C -174.94262,-0.26277024 -167.51462,5.9352298 -158.73662,10.501231 C -149.70062,15.211231 -139.32662,18.307236 -139.32662,18.307236 C -139.32662,18.307236 -136.12862,17.983236 -132.79862,17.983236 C -130.83662,17.983236 -127.98062,18.307236 -127.98062,18.307236 C -127.98062,18.307236 -129.85862,15.481231 -130.50062,12.775231 C -130.95662,10.819231 -130.23062,8.7372308 -130.23062,8.7372308 C -130.23062,8.7372308 -131.84462,5.4732298 -132.18662,2.4612298 C -132.43262,0.30722976 -131.43062,-1.8707702 -131.43062,-1.8707702 C -131.43062,-1.8707702 -129.94862,-3.3107702 -127.03262,-3.0587702 C -122.71262,-2.6927702 -120.99062,-0.50277024 -120.99062,-0.50277024 C -120.99062,-0.50277024 -117.95462,2.9832298 -115.36262,5.3712298 C -113.72462,6.8652298 -112.06262,7.7052308 -112.06262,7.7052308 C -112.06262,7.7052308 -108.42662,6.5472298 -105.75062,0.95522976 C -102.70262,-5.4107702 -100.56062,-16.33677 -100.56062,-16.33677 C -100.56062,-16.33677 -102.90662,-20.46477 -102.79862,-24.37677 C -102.71462,-26.96877 -100.15862,-29.92077 -100.15862,-29.92077 C -100.15862,-29.92077 -105.60662,-29.01477 -109.34462,-30.21477 C -112.71062,-31.29477 -114.39662,-34.49877 -114.39662,-34.49877 C -114.39662,-34.49877 -117.30062,-35.80077 -119.21462,-38.60877 C -120.45062,-40.40877 -120.98462,-44.15277 -120.98462,-44.15277 C -120.98462,-44.15277 -120.76862,-45.20277 -121.10462,-46.43277 C -121.36262,-47.35677 -122.16662,-48.37077 -122.25062,-49.15677 C -122.38262,-50.41677 -121.70462,-50.57877 -121.70462,-50.57877 C -121.70462,-50.57877 -120.18662,-51.20277 -118.63262,-50.83077 C -116.81462,-50.41077 -114.94862,-48.97677 -114.94862,-48.97677 C -114.94862,-48.97677 -113.93462,-48.59277 -110.80862,-47.94477 C -109.54862,-47.68077 -107.40062,-47.35677 -105.90662,-46.84677 C -104.32262,-46.31877 -103.38062,-45.61077 -101.69462,-45.26877 C -100.07462,-44.94477 -98.38261,-44.85477 -96.89461,-44.64477 C -92.79661,-44.08077 -89.70661,-43.75077 -89.70661,-43.75077 L -88.09861,-44.14677 C -88.09861,-44.14677 -91.70461,-46.66677 -92.79061,-50.70477 C -93.88261,-54.83877 -91.71661,-57.81477 -91.71661,-57.81477 C -91.71661,-57.81477 -92.02261,-58.96677 -89.29261,-60.68877 C -87.73261,-61.69077 -82.47661,-63.67677 -82.47661,-63.67677 C -82.47661,-63.67677 -81.49261,-63.85677 -80.56861,-62.93877 C -79.92661,-62.31477 -79.92061,-61.39677 -79.41661,-60.62877 C -78.89461,-59.83077 -77.89861,-59.18277 -77.89861,-59.18277 C -77.89861,-59.18277 -76.90861,-58.87677 -75.94861,-57.46677 C -74.92861,-55.94877 -73.95061,-53.30877 -73.95061,-53.30877 L -72.42661,-54.19077 C -72.42661,-54.19077 -72.34261,-62.96277 -68.55061,-69.53277 C -67.67461,-71.06277 -65.84461,-73.33677 -63.91261,-74.63277 C -61.80061,-76.03077 -59.63461,-76.38477 -59.63461,-76.38477 C -59.63461,-76.38477 -56.42461,-77.48277 -53.36461,-79.24677 C -51.92461,-80.06877 -51.57661,-80.65677 -50.52661,-81.46077 C -49.43461,-82.28877 -45.65461,-83.71077 -45.65461,-83.71077 C -45.65461,-83.71077 -39.9846,-85.04277 -34.9506,-85.20477 C -31.6986,-85.31277 -28.2906,-84.26277 -28.2906,-84.26277 C -28.2906,-84.26277 -26.8026,-83.57877 -24.0306,-83.59077 C -21.5766,-83.60277 -18.0126,-84.33477 -15.3546,-84.28677 C -11.8806,-84.23877 -8.9165996,-83.94477 -8.9165996,-83.94477 C -8.9165996,-83.94477 5.3754004,-85.02477 15.3594,-84.93477 C 21.2334,-84.88077 25.0914,-83.62677 25.0914,-83.62677 C 25.0914,-83.62677 28.5954,-83.24877 31.7454,-82.34277 C 34.2834,-81.59877 36.1554,-80.37477 39.2214,-79.81077 C 43.6854,-78.98877 48.7314,-79.28277 48.7314,-79.28277 C 48.7314,-79.28277 52.2714,-79.10277 57.6594,-79.40877 C 63.0594,-79.71477 70.3194,-80.51877 77.0334,-81.17277 C 87.9534,-82.24677 97.8534,-84.10677 97.8534,-84.10677 C 97.8534,-84.10677 115.7694,-86.50677 123.8214,-87.26277 C 125.8494,-87.43677 129.2154,-87.00477 129.2154,-87.00477 C 129.2154,-87.00477 137.6454,-85.81677 145.1034,-84.66477 C 149.6994,-83.95677 154.7754,-83.06277 154.7754,-83.06277 C 154.7754,-83.06277 177.5574,-81.80277 190.5654,-80.42877 C 195.5874,-79.89477 199.6434,-78.32277 199.6434,-78.32277 C 199.6434,-78.32277 205.6074,-75.86877 213.1554,-70.82277 C 219.1974,-66.77277 227.1354,-59.90877 227.1354,-59.90877 C 227.1354,-59.90877 232.9014,-54.74277 237.6834,-48.98277 C 241.6254,-44.23077 244.7334,-38.69877 244.7334,-38.69877 C 244.7334,-38.69877 245.3274,-37.53477 246.3534,-34.37277 C 246.85139,-32.90277 247.2834,-31.25277 247.7574,-29.63877 C 248.2434,-28.02477 248.7594,-26.45877 248.7594,-26.45877 C 248.7594,-26.45877 251.1954,-21.69477 250.9794,-15.68877 C 250.7574,-9.4367702 247.87139,-1.9427702 247.87139,-1.9427702 C 247.87139,-1.9427702 242.6514,8.0592308 238.1034,17.653236 C 233.9034,26.527226 230.3454,35.047226 230.3454,35.047226 C 230.3454,35.047226 227.1834,40.813226 224.8254,44.191226 C 223.5774,45.967226 222.3894,46.447226 222.3894,46.447226 C 222.3894,46.447226 218.4654,54.265226 216.0714,61.369226 C 214.0734,67.261226 213.5454,72.655226 213.5454,72.655226 C 213.5454,72.655226 214.0674,75.649226 213.3174,78.211226 C 212.7174,80.233226 210.8094,81.991226 210.8094,81.991226 C 210.8094,81.991226 209.8854,85.051226 208.4334,86.797226 C 206.9154,88.633226 204.86339,89.137226 204.86339,89.137226 C 204.86339,89.137226 203.7594,91.033226 202.7754,92.995226 C 201.87539,94.801226 201.0834,96.697226 201.0834,96.697226 C 201.0834,96.697226 202.8894,101.57524 203.6274,104.97124 C 204.3654,108.36124 204.0654,110.28124 204.0654,110.28124 C 204.0654,110.28124 204.1194,112.70524 201.9414,113.67124 C 199.7754,114.63124 195.3834,114.13924 195.3834,114.13924 C 195.3834,114.13924 194.30339,114.15124 192.9474,114.47524 C 191.3394,114.84724 189.2634,115.56724 186.7614,115.84924 C 181.30139,116.44924 175.1094,116.38924 175.2774,116.38924 C 175.4514,116.38924 169.5894,116.40124 167.8794,112.83124 C 166.6914,110.37124 169.1574,105.93724 169.1574,105.93724 C 169.1574,105.93724 170.0214,104.28724 171.6594,102.22324 C 173.0274,100.51924 175.0434,98.611226 176.4654,96.445226 C 177.7734,94.411226 178.6314,91.957226 179.6034,90.169226 C 181.30139,87.043226 182.6634,85.117226 182.6634,85.117226 C 182.6634,85.117226 183.7014,81.997226 183.0774,77.947226 C 182.6094,74.911226 180.4194,70.651226 180.4194,70.651226 C 180.4194,70.651226 178.5174,65.809226 177.2574,60.865226 C 176.0154,55.999226 175.4394,51.019226 175.4394,51.019226 C 175.4394,51.019226 174.8994,46.663226 172.9314,43.807226 C 171.5514,41.803226 168.5334,40.975226 168.5334,40.975226 C 168.5334,40.975226 165.0594,38.773226 162.0774,39.187226 C 160.1454,39.469226 158.2374,42.427226 158.2374,42.427226 C 158.2374,42.427226 147.7494,51.973226 135.7734,56.863226 C 123.0174,62.065226 108.7014,62.611226 108.7014,62.611226 C 108.7014,62.611226 98.2854,63.775226 86.99339,63.907226 C 73.6194,64.045226 59.0154,63.169226 59.0154,63.169226 C 59.0154,63.169226 58.0254,63.205226 57.6774,66.469226 C 57.2754,70.099226 57.4914,76.993226 57.4914,76.993226 C 57.4914,76.993226 57.2754,78.607226 57.6954,79.873226 C 58.1454,81.223226 59.2494,82.261226 59.5374,83.821226 C 59.9094,85.837226 59.4174,87.445226 59.4174,87.445226 C 59.4174,87.445226 59.5674,89.395226 60.0954,91.639226 C 60.7614,94.465226 61.8294,97.741226 61.8294,97.741226 C 61.8294,97.741226 68.3754,108.69124 70.0014,115.07524 C 70.9494,118.81924 67.3734,119.44924 67.3734,119.44924 C 67.3734,119.44924 64.1454,120.34324 60.2934,120.74524 C 56.7954,121.11124 52.6614,120.96724 52.6614,120.96724 C 52.6614,120.96724 40.1034,123.25324 34.5594,121.66324 C 31.0614,120.66724 33.6054,115.50724 33.6054,115.50724 C 33.6054,115.50724 33.9414,112.54924 35.3574,110.17324 C 36.8574,107.61724 39.4854,105.61324 39.4854,105.61324 C 39.4854,105.61324 39.0594,99.619236 38.4894,96.265226 C 38.2674,94.909226 37.5474,94.123226 37.5474,94.123226 C 37.5474,94.123226 35.2854,91.183226 33.3054,88.531226 C 31.8234,86.575226 30.4674,84.715226 30.4674,84.715226 C 30.4674,84.715226 29.7774,83.905226 29.0934,86.539226 C 28.4094,89.167226 27.7374,95.239226 27.7374,95.239226 C 27.7374,95.239226 27.7854,96.541226 27.3714,98.515226 C 27.1974,99.385226 26.5794,99.349226 26.3214,100.18324 C 26.0454,101.12524 26.1234,102.88324 26.1234,102.88324 C 26.1234,102.88324 30.1254,109.64524 30.6954,113.13724 C 31.3014,116.86924 28.4574,117.35524 28.4574,117.35524 C 28.4574,117.35524 19.8594,118.90924 12.7734,119.34724 C 7.5654004,119.65324 3.2934004,118.88524 3.2934004,118.88524 C 3.2934004,118.88524 2.4354004,118.96924 1.7754004,118.46524 C 1.0314004,117.89524 0.4794004,116.71324 0.4794004,116.71324 C 0.4794004,116.71324 -4.8065996,117.27124 -6.7805996,115.73524 C -8.1545996,114.66124 -6.4385996,111.33124 -6.4385996,111.33124 C -6.4385996,111.33124 -5.8865996,108.52924 -4.1825996,106.83124 C -2.7245996,105.37324 -0.072599602,104.98324 -0.072599602,104.98324 C -0.072599602,104.98324 3.2214004,103.88524 5.0454004,100.90924 C 6.8034004,98.059226 7.0674004,93.313226 7.0674004,93.313226 C 7.0674004,93.313226 6.5874004,87.967226 3.6114004,81.505226 C 1.9014004,77.809226 -3.0605996,71.371226 -3.0605996,71.371226 C -3.0605996,71.371226 -8.4005996,67.441226 -12.1326,63.109226 C -15.1026,59.671226 -16.6446,55.621226 -16.6446,55.621226 C -16.6446,55.621226 -20.8806,57.271226 -25.8486,56.437226 C -30.7266,55.621226 -36.3426,52.327226 -36.3426,52.327226 C -36.3426,52.327226 -38.9826,55.375226 -41.8866,55.951226 C -44.2206,56.407226 -46.94461,54.409226 -46.94461,54.409226 C -46.94461,54.409226 -49.47661,53.041226 -51.50461,51.487226 C -53.79661,49.723226 -55.63861,47.737226 -55.63861,47.737226 C -55.63861,47.737226 -55.71061,53.353226 -58.63261,55.741226 C -61.33261,57.931226 -66.90061,56.905226 -66.90061,56.905226 C -66.90061,56.905226 -70.90261,62.449226 -76.36261,66.019226 C -82.84261,70.231226 -90.94261,72.589226 -90.94261,72.589226 C -90.94261,72.589226 -92.34061,72.997226 -93.25261,73.885226 C -94.69861,75.307226 -96.27661,77.557226 -99.21061,78.343226 C -103.63262,79.549226 -109.33862,77.569226 -109.33862,77.569226 C -109.33862,77.569226 -113.14262,79.219226 -117.24062,79.699226 C -120.87662,80.137226 -124.86062,79.417226 -124.86062,79.417226 C -124.86062,79.417226 -126.54062,79.405226 -128.47862,77.791226 C -130.00262,76.501226 -131.71262,73.861226 -132.82262,71.731226 C -134.84462,67.867226 -134.01062,61.963226 -134.01062,61.963226 z"
       clip-rule="evenodd"
       inkscape:transform-center-x="-215.13681"
       inkscape:transform-center-y="104.76489" />
  </g>
</svg>
